<svg xmlns="http://www.w3.org/2000/svg" viewBox="0 0 1920 1080" preserveAspectRatio="xMidYMid slice">
  <defs>
    <linearGradient id="green_grad" x1="0%" y1="0%" x2="0%" y2="100%">
      <stop offset="0%" stop-color="#004D2C" />
      <stop offset="100%" stop-color="#001F12" />
    </linearGradient>

    <linearGradient id="grey_grad" x1="0%" y1="0%" x2="0%" y2="100%">
      <stop offset="0%" stop-color="#4D4D4D" />
      <stop offset="100%" stop-color="#1A1A1A" />
    </linearGradient>
  </defs>

  <rect width="100%" height="100%" fill="#000000" />

  <g fill="#FFFFFF" opacity="0.4">
    <circle cx="200" cy="150" r="1.5">
      <animate attributeName="opacity" values="0.1;0.6;0.1" dur="4s" repeatCount="indefinite" />
    </circle>
    <circle cx="1500" cy="800" r="1.2">
      <animate attributeName="opacity" values="0.1;0.5;0.1" dur="7s" repeatCount="indefinite" />
    </circle>
    <circle cx="100" cy="900" r="1">
      <animate attributeName="opacity" values="0.1;0.7;0.1" dur="5s" repeatCount="indefinite" />
    </circle>
    <circle cx="1800" cy="200" r="1.3">
      <animate attributeName="opacity" values="0.1;0.5;0.1" dur="6s" repeatCount="indefinite" />
    </circle>
  </g>

  <path fill="url(#green_grad)" opacity="0.8">
    <animate attributeName="d" dur="10s" repeatCount="indefinite"
      values="
        M0,0 Q180,540 0,1080 Z;
        M0,0 Q280,540 0,1080 Z;
        M0,0 Q180,540 0,1080 Z
      " />
  </path>

  <path fill="url(#grey_grad)" opacity="0.7">
    <animate attributeName="d" dur="12s" repeatCount="indefinite"
      values="
        M1920,0 Q1740,540 1920,1080 Z;
        M1920,0 Q1640,540 1920,1080 Z;
        M1920,0 Q1740,540 1920,1080 Z
      " />
  </path>

  <g transform="translate(120, 540)">
    <g>
      <animateTransform attributeName="transform" type="translate" values="0,0; 0,-20; 0,0" dur="5s" repeatCount="indefinite" />
      <circle r="50" fill="#1DB954" />
      <path d="M28.4,-3.9 C15,-9.3 -6.9,-10.1 -19.4,-6.4 C-21.4,-5.8 -22.6,-3.6 -22,-1.6 C-21.3,0.3 -19.2,1.5 -17.2,0.9 C-6.7,-2.2 12.8,-1.5 24.5,3.2 C26.3,4 28.5,3 29.2,1 C30,-0.9 29.1,-3.1 28.4,-3.9 Z M26,10.4 C14.5,5.6 -4.8,4.8 -15.7,8.1 C-17.5,8.6 -18.4,10.6 -17.9,12.3 C-17.3,14.1 -15.4,15 -13.7,14.4 C-4.8,11.8 12.5,12.4 22.1,16.3 C23.8,17 25.7,16.1 26.4,14.4 C27.1,12.7 26.3,10.7 26,10.4 Z M20.2,20.1 C11.6,15.2 -3.4,14.1 -11.9,16.7 C-13.3,17.2 -14.1,18.8 -13.6,20.2 C-13.1,21.6 -11.5,22.4 -10.1,22 C-3.3,19.9 9.8,20.7 17.1,25.1 C18.4,25.9 20.1,25.4 20.9,24.1 C21.7,22.8 21.2,21.1 20.2,20.1 Z" fill="#000000" />
    </g>
  </g>

  <g transform="translate(1800, 540)">
    <g>
      <animateTransform attributeName="transform" type="translate" values="0,0; 0,20; 0,0" dur="6s" repeatCount="indefinite" />
      <path d="M0-50C-27.6-50-50-27.6-50,0c0,22.1,14.3,40.8,34.2,47.5c2.5,0.5,3.4-1.1,3.4-2.4c0-1.2,0-4.4-0.1-8.6c-13.9,3-16.8-6.7-16.8-6.7c-2.3-5.8-5.6-7.3-5.6-7.3c-4.5-3.1,0.3-3,0.3-3c5,0.4,7.6,5.1,7.6,5.1c4.5,7.7,11.8,5.5,14.6,4.2c0.5-3.3,1.8-5.5,3.2-6.7c-11.1-1.3-22.8-5.6-22.8-24.8c0-5.5,2-10,5.2-13.5c-0.5-1.3-2.3-6.4,0.5-13.3c0,0,4.2-1.4,13.8,5.1c4-1.1,8.3-1.7,12.6-1.7s8.6,0.6,12.6,1.7c9.6-6.5,13.8-5.1,13.8-5.1c2.8,6.9,1,12,0.5,13.3c3.2,3.5,5.2,8,5.2,13.5c0,19.2-11.7,23.5-22.9,24.7c1.8,1.5,3.4,4.6,3.4,9.3c0,6.7-0.1,12.1-0.1,13.8c0,1.3,0.9,2.9,3.4,2.4C35.7,40.8,50,22.1,50,0C50-27.6,27.6-50,0-50z" fill="#FFFFFF" />
    </g>
  </g>
</svg>
